<svg xmlns="http://www.w3.org/2000/svg" id="Layer_2" viewBox="0 0 861.08 149.64"><defs><style>.cls-1,.cls-2{fill:#8a5d24;stroke-width:0px;}.cls-2{fill-rule:evenodd;}</style></defs><g id="Layer_1-2"><path class="cls-2" d="m151.52,114.99c-1.78-6.87-5.78-11.99-10.93-15.67-2.58-1.85-5.66-3.35-9.11-4.2-4.82-1.18-11.94-.95-16.33.66-.12-.71-.36-1.47-.55-2.26-.29-1.21-.78-2.32-.22-3.26-1.07-4.19-2.19-8.33-3.15-12.64-.09-.19-.46.08-.49-.05.1-5.7,9.16-3.64,9.82-8.88.27-.04.39-.16.6-.22.25-.08.53-.02.83-.16,1.25-.62,1.12-3.84.05-4.31-.43-.19-.91.02-1.49-.05.04-1.72-1.28-2.06-1.16-3.86-.36-.27-.31-.57-.39-1.27-.04-.35-.22-.7-.22-.94.01-1.13.93-1.7.83-2.81-.08-.88-.7-1.26-.55-2.37-.81-1.19-.74-3.49-.66-5.24.28-.57.38-1.08.33-1.77-.07-.8-.42-1.27-.55-1.82-.11-.46.04-.9-.11-1.27-.26-.64-1.65-1.01-2.43-1.22-4.31-1.17-8.01,1.59-12.58,1-.7-.09-1.38-.42-1.88-.66.17-.71.22-1.51.55-2.15.12-.25.36-.43.49-.66.26-.49.4-.97.72-1.38,2.12-2.77,4.24-5.6,6.18-8.5.19-.61.37-1.24.77-1.66.19.26.31.57.44.88.77.42,1.26,1.09,1.93,1.6,1.35,1.02,3.27,1.47,4.91,2.15.39.16.81.4,1.21.55.48.17,1,.19,1.43.39,1.04.47,1.54,1.31,2.32,2.15.48.52,1.14.92,1.49,1.44.5.74.8,1.8,1.33,2.7.42.73,1.2,1.87,1.98,2.04.88.19,1.14-.51,1.76-.55.46-.03.91.36,1.32.38.53.03,1.29-.2,1.71-.5.57-.41,1.31-1.49,1.6-2.26.17-.47.32-1.05.16-1.49.69-.25.96-1.16.83-2.2-.12-.93-.84-2-1.1-3.09-.1-.41-.09-.9-.22-1.27-.21-.61-.78-1.38-1.1-1.93-.35-.59-.9-1.09-1.27-1.71-.37-.62-.67-1.36-.99-2.04-.33-.7-.76-1.33-1.1-1.99-.97-1.84-1.34-3.84-1.88-5.74-.19-.67-.76-1.12-1.1-1.65-.97-1.51-1.39-3.42-2.26-4.97.38-.88.96-1.54,1.6-2.16.68-.65,1.43-1.04,2.21-1.54-1.03-1.17-1.98-2.43-3.97-2.65-.03-1.5-1.24-1.82-2.7-1.88-.18-.4-.66-.62-1.1-.99-.35-.29-.76-.83-1.16-.94-.35-.09-.88.01-1.33.05-.94.09-1.62.16-2.21.44-.52-.25-1.2-.34-1.71-.61-.83.14-1.34.56-2.15.77-.41.11-1.03.14-1.6.22-.48.07-1.13.03-1.49.17-.46.18-.83,1.13-1.38,1.38-.85.39-1.45.24-2.26.55-.31.51-.59,1.06-.99,1.49-.95.07-2.05.45-2.87.83-.13.43,0,1.1-.11,1.55-1.09.37-2.36,1.01-3.37,1.66.02.46.13,1.11.06,1.49-.53.19-1.19.24-1.82.33-.52.52-.94,1.12-1.33,1.77-.66.15-1.27.34-1.93.5-.36.63-.65,1.34-1.1,1.87-.38.12-1.01-.02-1.38.11-.28.33-.29.92-.55,1.27-.68-.01-1.51.21-2.04,0-.34.52-.71,1.01-1.1,1.49-2.1-.45-2.31.9-3.03,1.71-.81.08-1.5.26-2.15.49-.37.75-.45,1.8-.72,2.65-.64.06-1.19.21-1.82.28-.35,1.05.42,1.55.94,2.2.42.54.73,1.03.88,1.71-1.13.37-1.91.96-2.81,1.49-1.22.71-2.11,1.16-3.04,2.04-.8.76-1.52,1.35-2.21,2.15-.35.41-.59.88-.94,1.27-.18.21-.43.34-.61.55-.7.82-1.32,2-1.93,2.87-.22.32-.34.74-.55,1.05-.18.26-.44.42-.61.66-.32.49-.59,1.02-.88,1.49-.31.51-.71.85-1.05,1.32-.24.33-.35.68-.61,1-.49.57-1.1,1.06-1.6,1.6-.27.29-.44.71-.72.94-.38.32-.92.44-1.32.72-.41.29-.72.68-1.1.94-.41.27-.9.48-1.38.72-.45.23-.95.55-1.44.72-1.04.35-1.76.76-2.76,1.1-.8.28-1.65.51-2.48.77-2.57.83-4.2,2.26-5.68,4.03-.89,1.05-1.75,1.98-1.99,3.59-.54.23-.91.78-1.43,1.05-.46.23-.91.34-1.32.55-1.27.63-2.12,1.73-3.31,2.43-.3.51-.72.9-1.21,1.21-.27.77-.94,1.05-1.43,1.6-.25.28-.41.64-.67.93-.24.28-.54.5-.83.78-1.09,1.05-2.12,2.08-3.42,2.98-.66.45-1.43,1.03-2.04,1.16-.25.05-.56-.03-.88,0-.77.08-1.17.36-1.88.17-1.01-.28-1.99-.77-2.81-1.21-.86-.47-1.51-1.12-2.1-1.93-1.15-1.59-2.21-3.13-4.3-3.75-.25.19.78.6.55.77-1.78-.28-3.31-.81-4.75-1.43.23,1.07,1.35,1.26,1.76,2.15.27-.14.6.38.61.5-.5.08-.73-.39-1.1-.61-.23-.13-.54-.14-.77-.28-.74-.44-1.17-1.02-1.76-1.38-.68-.41-1.36-.62-2.32-.88-.34-.09-.57-.57-.99-.44-.15.82.88.88,1.44,1.21.5.3.88.72,1.05,1.1-2.02-.46-3.66.05-5.19.61-1.63.6-3.02.7-4.8.39.14.76,1.09.64,1.82.77.68.12,1.38.55,2.04.61.29.03.61-.08.88-.05.52.06.99.41,1.44.5-1.07.54-3.17.22-4.25.27.13.44.67.54,1.05.66.42.15.89.28,1.33.39.95.24,2,.27,2.87.55.45.15.73.46,1.1.72.29.2.67.32.94.49.85.57,1.55,1.42,2.1,2.1-.94.09-2.04-.51-2.93-.28.57.55,1.36.9,2.1,1.27.74.36,1.5.9,2.26,1.1.24.06.51,0,.77.05.22.05.44.23.66.27.78.15,2.17-.07,3.31-.11,1.34-.04,2.49-.07,3.58-.38.18-.05.32-.17.5-.23.18-.05.37,0,.55-.05.24-.08.43-.29.66-.38.57-.24,1.26-.38,1.88-.61.61-.22,1.19-.64,1.76-.77.45-.1,1.03.02,1.54-.05.49-.07,1.1-.4,1.6-.61,1.66-.69,2.89-1.45,4.25-2.43,2.61-1.87,4.97-4.39,7.89-5.57,0,.63-.44,1.08-.6,1.66-.1.32-.06.71-.17,1.05-.09.28-.3.51-.38.77-.38,1.24-.5,2.89-.22,4.19.23,1.1.68,2.27,1.22,3.37.64,1.3,1.22,2.97,2.43,3.48,1.32,1.64,2.81,2.89,4.52,4.03.6.39,1.27.58,1.93.94.61.32,1.02.99,1.65,1.27.4.64.78,1.29.83,2.32.06,1.19,0,2.83-.11,4.03-.04.45-.19.83-.22,1.16-.02.23.1.38.05.55-.13.5-.67,1.05-1.05,1.6-1.13,1.64-2.32,3.33-3.58,4.52-4.31-2.78-10.76-4.61-17.44-3.86-6.42.71-11.33,3.53-15.12,6.84-3.89,3.41-6.9,7.88-8.44,13.52-1.59,5.83-1.04,12.9,1.32,18.26,2.2,5,5.7,8.86,10.15,11.81,4.45,2.94,9.87,5.09,16.83,4.69,3.24-.18,6.26-.96,8.94-2.04,7.53-3.05,12.79-8.42,15.56-16.06.11-.3.11-.75.44-.94.34-.07-.02.22.16.28.68-.44,1.09-.16,1.88.06,2.54.69,5.24,1.32,7.5,2.15,3.22,1.19,6.47.3,8.55-1.38,1.94-1.57,3.43-4.82,2.7-8.44.68-.6,1.77-.57,2.71-1,.18-.08.32-.3.5-.39.39-.19.89-.27,1.32-.44.43-.16.86-.38,1.27-.55.91-.36,1.91-.64,2.49-1.1.67-.54.62-1.31.94-2.16.68-.15,1.43-.22,1.93-.55.47-.7.09-1.93-.22-2.65-.47-.3-.74.18-1.16.11,2.62-4.4,4.93-9.32,8.11-13.3,2.35-2.94,4.97-5.82,8.22-7.83,1.06-.66,2.22-1.58,3.7-1.43.48,1.71.89,3.77,1.21,5.46-5.83,3.03-10.21,7.59-12.91,13.63-1.42,3.17-2.23,6.98-2.21,10.87.02,3.84.94,7.75,2.26,10.93,2.6,6.2,6.89,10.82,12.8,13.79,2.93,1.47,6.54,2.57,10.37,2.92,3.92.36,7.8-.21,11.31-1.44,3.22-1.12,5.9-2.86,8.5-4.74,2.48-1.8,4.62-4.42,6.24-7.06,3.33-5.43,5.12-13.47,3.09-21.3h0Z"></path><path class="cls-1" d="m210.03,51.5h12.79v.39c-4.63,0-5.31,4.92-5.31,11.92v35.64h-.41l-29.66-42.32v29.36c0,6.74,1.36,11.79,6.26,11.79v.39h-13.47v-.39c4.63,0,5.99-5.06,5.99-11.79v-27.48c0-4.67-2.31-6.61-5.99-7.13v-.39h12.25l23.81,34.28v-21.97c0-7-1.09-11.92-6.26-11.92v-.39h0Z"></path><path class="cls-1" d="m261.13,90.38c1.97,5.31,3.33,7.65,6.19,7.91v.39h-17.42v-.39c3.81-.26,5.1-2.72,3.81-6.16l-3.54-9.53h-15.17l-1.36,3.57c-2.86,7.65-2.38,11.6,2.25,12.12v.39h-11.43v-.39c3.27-.39,4.97-4.73,7.89-12.51l13.27-35.06h.54l14.97,39.66h0Zm-25.58-9.33h14.08l-7.01-18.92-7.08,18.92h0Z"></path><path class="cls-1" d="m301.01,61.74h-.41c-3.74-7.58-6.12-9.2-12.66-9.2h-2.11v37.72c0,4.8.27,8.04,4.9,8.04v.39h-17.42v-.39c4.63,0,4.9-3.24,4.9-8.04v-37.72h-2.11c-6.46,0-8.91,1.62-12.66,9.2h-.41l.95-10.24h36.06l.95,10.24h0Z"></path><path class="cls-1" d="m310.87,83.38v-23.46c0-4.8-.27-8.04-4.9-8.04v-.39h17.42v.39c-4.63,0-4.9,3.24-4.9,8.04v23.07c0,10.3,3.33,14.78,11.43,14.78,7.62,0,12.52-4.28,12.52-14.65v-19.31c0-6.09-1.09-11.92-5.71-11.92v-.39h12.25v.39c-4.63,0-5.31,5.83-5.31,11.92v19.31c0,11.15-5.31,16.33-15.79,16.33s-17.01-4.92-17.01-16.07h0Z"></path><path class="cls-1" d="m394.84,98.29v.39c-1.09.13-4.49.26-6.53.26-4.9,0-6.12-2.07-14.56-19.7-1.16-2.33-2.31-2.85-4.49-2.85h-2.79v13.87c0,4.8.27,8.04,4.9,8.04v.39h-17.42v-.39c4.63,0,4.9-3.24,4.9-8.04v-30.33c0-4.8-.27-8.04-4.9-8.04v-.39h18.37c10.89,0,16.87,4.8,16.87,12.31,0,6.35-4.97,10.37-11.09,11.92v.13c1.97,1.1,3.67,3.69,5.31,6.68,6.8,12.44,8.16,14.71,11.43,15.75h0Zm-28.37-22.94h4.63c6.74,0,10.21-3.95,10.21-11.02s-3.2-11.79-10.14-11.79h-2.11c-1.63,0-2.59.78-2.59,2.33v20.48h0Z"></path><path class="cls-1" d="m432.53,90.38c1.97,5.31,3.33,7.65,6.19,7.91v.39h-17.42v-.39c3.81-.26,5.1-2.72,3.81-6.16l-3.54-9.53h-15.17l-1.36,3.57c-2.86,7.65-2.38,11.6,2.25,12.12v.39h-11.43v-.39c3.27-.39,4.97-4.73,7.89-12.51l13.27-35.06h.54l14.97,39.66h0Zm-25.58-9.33h14.08l-7.01-18.92-7.08,18.92h0Z"></path><path class="cls-1" d="m442.4,98.68v-.39c4.63,0,4.9-3.24,4.9-8.04v-30.33c0-4.8-.27-8.04-4.9-8.04v-.39h17.42v.39c-4.63,0-4.9,3.24-4.9,8.04v34.74c0,1.94.61,2.98,2.65,2.98h2.93c7.35,0,10.82-2.07,15.45-11.41h.41l-1.77,12.44h-32.18Z"></path><path class="cls-1" d="m500.31,96.26l-.41-10.69h.41c2.99,8.17,7.69,12.44,14.02,12.44,5.37,0,10.14-3.43,10.14-9.33s-4.9-8.36-10.61-11.02l-3.47-1.62c-4.56-2.14-9.46-5.18-9.46-12.44,0-7.71,5.85-13.41,14.22-13.41,3.74,0,8.98,1.17,12.25,2.59v8.43h-.41c-3.06-7-7.08-10.11-12.25-10.11-5.51,0-9.05,3.5-9.05,8.75s4.35,7.45,8.5,9.4l3.47,1.62c5.92,2.79,11.57,5.83,11.57,13.8s-6.4,14.26-15.92,14.26c-3.95,0-9.8-1.1-13-2.66h0Z"></path><path class="cls-1" d="m571.55,86.67l-1.63,11.47h-34.9v-.39c4.63,0,4.9-3.24,4.9-8.04v-30.33c0-4.8-.27-8.04-4.9-8.04v-.39h33.88l.88,10.24h-.41c-3.74-7.58-6.26-9.2-13.74-9.2h-8.1v21.06h6.19c6.33,0,7.96-1.62,9.32-6.42h.41v14.39h-.41c-1.36-4.8-2.99-6.93-9.32-6.93h-6.19v19.96c0,1.94.61,3.05,2.72,3.05h6.33c7.08,0,10.21-1.43,14.56-10.43h.41Z"></path><path class="cls-1" d="m577,98.14v-.39c4.63,0,4.9-3.24,4.9-8.04v-30.33c0-4.8-.27-8.04-4.9-8.04v-.39h17.42v.39c-4.63,0-4.9,3.24-4.9,8.04v34.74c0,1.94.61,2.98,2.65,2.98h2.93c7.35,0,10.82-2.08,15.45-11.41h.41l-1.77,12.44h-32.18Z"></path><path class="cls-1" d="m652.86,86.67l-1.63,11.47h-34.9v-.39c4.63,0,4.9-3.24,4.9-8.04v-30.33c0-4.8-.27-8.04-4.9-8.04v-.39h33.88l.88,10.24h-.41c-3.74-7.58-6.26-9.2-13.74-9.2h-8.1v21.06h6.19c6.33,0,7.96-1.62,9.32-6.42h.41v14.39h-.41c-1.36-4.8-2.99-6.93-9.32-6.93h-6.19v19.96c0,1.94.61,3.05,2.72,3.05h6.33c7.08,0,10.21-1.43,14.56-10.43h.41Z"></path><path class="cls-1" d="m658.38,74.68c0-14.52,9.87-24.5,23.41-24.5,6.8,0,11.57,1.94,14.7,3.5l.41,8.94h-.41c-3.27-7.26-7.89-11.54-14.97-11.54-8.98,0-14.7,9.98-14.7,23.46s5.85,23.46,14.7,23.46c7.08,0,12.25-4.54,15.51-12.7h.41l-1.22,10.37c-3.13,1.43-7.89,3.24-14.42,3.24-13.54,0-23.41-9.33-23.41-24.24h0Z"></path><path class="cls-1" d="m740.84,61.2h-.41c-3.74-7.58-6.12-9.2-12.66-9.2h-2.11v37.72c0,4.8.27,8.04,4.9,8.04v.39h-17.42v-.39c4.63,0,4.9-3.24,4.9-8.04v-37.72h-2.11c-6.46,0-8.91,1.62-12.66,9.2h-.41l.95-10.24h36.06l.95,10.24h0Z"></path><path class="cls-1" d="m746.22,98.14v-.39c4.63,0,4.9-3.24,4.9-8.04v-30.33c0-4.8-.27-8.04-4.9-8.04v-.39h17.42v.39c-4.63,0-4.9,3.24-4.9,8.04v30.33c0,4.8.27,8.04,4.9,8.04v.39h-17.42Z"></path><path class="cls-1" d="m769.02,74.68c0-14.52,8.98-24.5,22.45-24.5s22.32,9.46,22.32,24.24-8.98,24.5-22.45,24.5-22.32-9.46-22.32-24.24h0Zm36.33-.13c0-13.09-4.76-23.46-14.02-23.46s-13.88,9.98-13.88,23.46,4.76,23.46,14.02,23.46,13.88-9.98,13.88-23.46Z"></path><path class="cls-1" d="m848.28,50.96h12.79v.39c-4.63,0-5.31,4.92-5.31,11.92v35.64h-.41l-29.66-42.32v29.36c0,6.74,1.36,11.79,6.26,11.79v.39h-13.47v-.39c4.63,0,5.99-5.06,5.99-11.79v-27.48c0-4.67-2.31-6.61-5.99-7.13v-.39h12.25l23.81,34.28v-21.97c0-7-1.09-11.92-6.26-11.92v-.39h0Z"></path></g></svg>
