<svg xmlns="http://www.w3.org/2000/svg" xmlns:xlink="http://www.w3.org/1999/xlink" x="0" y="0" version="1.1" viewBox="0 0 832.5 242.1" style="enable-background:new 0 0 832.5 242.1" xml:space="preserve"><style type="text/css">.st31,.st41{fill:#fff}.st41{fill-rule:evenodd;clip-rule:evenodd}</style><g id="Layer_1"><g><g><g><path d="M139.7,227.2c0-0.9,0.4-2.9,1.5-6.3c0.3-0.9,0.9-1.4,1.5-1.4c0.7,0,1.2,0.5,1.3,1.5 c0.5,5.7,2.2,7.9,5.6,7.9c3.3,0,5.3-2.4,5.3-6l-0.1-24.8c0.1-3.7-4-2.2-4-4.5c0-0.5,0.4-1.1,1.4-1.1c1.4,0,3.1,0.2,5.4,0.2 c2.1,0,3.8-0.2,5-0.2c1,0,1.4,0.5,1.4,1.1c0,2.1-3.6,0.8-3.7,4.5l0.1,24.2c0,6.8-4.7,9.6-10.8,9.6 C144.6,231.9,139.7,229.9,139.7,227.2z" class="st31"/><path d="M165.9,218c0-8.4,6.3-14.6,14.8-14.6c8.3,0,14.2,5.9,14.2,14.3c0,8.3-6.3,14.5-14.8,14.5 C171.7,232.1,165.9,226.2,165.9,218z M189.6,219.5c0-6.9-4.1-13.2-10-13.2c-5.2,0-8.4,4.1-8.4,9.6c0,6.8,4.1,13.2,10,13.2 C186.4,229.2,189.6,225,189.6,219.5z" class="st31"/><path d="M228.1,228.4c0,1-1,1.6-4.4,2.4c-2.4,0.6-3.3,0.8-3.8,0.8c-1,0-1.1-1-1.1-1.9v-3.2 c-1.7,2.8-4.5,5.2-9.2,5.2c-6.2,0-9.1-4.1-9.1-10.6v-9.4c0-3.3-4.4-2-4.4-4c0-1,0.9-1.5,4.1-2.7c2.8-1,3.5-1.1,3.9-1.1 c1.1,0,1.3,1.1,1.3,2v14.5c0,4.4,1.2,7.4,5.8,7.4c3.8,0,7.6-2.8,7.6-8.3v-7.7c0-3.3-4.8-1.9-4.8-4c0-0.9,1-1.5,4.6-2.8 c2.6-0.9,3.5-1.1,4-1.1c1,0,1.1,1,1.1,2v18.2C223.6,227.4,228.1,226.6,228.1,228.4z" class="st31"/><path d="M252.6,206.2c0,0.8-0.3,2.2-1,4.6c-0.3,0.9-0.7,1.5-1.5,1.5c-0.7,0-1-0.6-1.4-1.5 c-0.7-1.7-1.4-2.5-2.6-2.5c-2.6,0-7.1,4.2-7.1,11.8v5.2c0,4.4,4.2,2.7,4.2,4.9c0,0.5-0.4,1.1-1.2,1.1c-1.4,0-3.3-0.2-5.5-0.2 c-1.9,0-3.4,0.2-4.6,0.2c-0.9,0-1.3-0.6-1.3-1.1c0-2.1,3.4-0.5,3.4-4.9V212c0-3.4-3.9-1.5-3.9-3.7c0-0.9,1-1.5,3.8-2.8 c2.8-1.4,3.4-1.5,3.8-1.5c0.9,0,1.1,0.7,1.1,1.9v5.6c1.8-4.6,5.8-7.7,9.6-7.7C251,203.7,252.6,204.9,252.6,206.2z" class="st31"/><path d="M286.5,230.2c0,0.8-0.7,1.1-1.5,1.1c-1.4,0-2.6-0.2-4.7-0.2c-2.2,0-3.2,0.2-4.7,0.2c-1,0-1.5-0.5-1.5-1.1 c0-2,3.7-0.7,3.7-4c0-0.4-0.1-1.1-0.2-1.6l-1.3-9.2c-0.4-2.8-1.4-7.4-5.7-7.4c-3.3,0-6.8,2.6-6.8,8.2v9.2c0,4.4,3.5,2.8,3.5,4.9 c0,0.5-0.4,1.1-1.2,1.1c-1.2,0-2.8-0.2-4.8-0.2c-1.9,0-3.4,0.2-4.6,0.2c-0.9,0-1.3-0.6-1.3-1.1c0-2.1,3.4-0.5,3.4-4.9V212 c0-3.4-3.9-1.5-3.9-3.7c0-0.9,1-1.5,3.8-2.8c2.8-1.4,3.4-1.5,3.8-1.5c0.9,0,1.1,0.7,1.1,1.9v3.2c1.7-2.8,4.6-5.3,8.8-5.3 c6.5,0,8.1,6.3,8.7,10.8l1.4,10.2C283.1,229.9,286.5,228.1,286.5,230.2z" class="st31"/><path d="M312.4,225.5c0,0.3-0.2,0.8-0.5,1.3c-2,2.9-6.8,5.3-11.5,5.3c-7.4,0-13.7-5.2-13.7-14.3 c0-8.6,6.3-14.5,13.4-14.5c6.7,0,11.2,5.1,11.2,10.5c0,1.1-0.3,1.5-1.1,1.7l-17.5,5.2c1.5,4.5,5,7.6,9.5,7.6 c3.2,0,5.9-1.4,7.7-3.4c0.5-0.5,1-0.8,1.4-0.8C311.9,224.2,312.4,224.8,312.4,225.5z M291.9,215.8c0,0.8,0.1,1.5,0.2,2.2 l12.6-3.9c1-0.3,1.3-0.5,1.3-1.5c0-2.7-2.6-6.1-6.4-6.1C295.1,206.5,291.9,210.2,291.9,215.8z" class="st31"/><path d="M342.7,205.2c0,1.7-2.8,1.2-4.1,4.3l-10.2,24c-2.1,5.1-5.1,8-9.1,8c-1.7,0-3.2-0.5-3.8-1.2 c-0.8-1-1.7-4.5-1.7-5.9c0-0.8,0.4-1.5,1.1-1.5c0.6,0,0.9,0.3,1.4,1c1.6,2.5,2.8,3.7,4.2,3.7c1.9,0,3.6-2.1,5.1-5.7l0.3-0.8 l-9.6-21.5c-1.4-3.2-4.1-2.7-4.1-4.4c0-0.7,0.5-1,1.3-1c1.4,0,2.9,0.2,5.2,0.2c2.1,0,3.6-0.2,4.8-0.2c0.9,0,1.4,0.4,1.4,1.1 c0,1.8-3.2,1.1-3.2,3.6c0,0.4,0.2,1.6,0.8,3l5.9,13.9l5.7-13.9c0.5-1.5,0.9-2.4,0.9-3.2c0-2.2-3.3-1.6-3.3-3.4 c0-0.8,0.5-1.1,1.4-1.1c1.1,0,2.6,0.2,4,0.2c1.5,0,2.8-0.2,4.2-0.2C342.1,204.2,342.7,204.6,342.7,205.2z" class="st31"/><path d="M346.5,230.2l-1.6-3.5c-1-2-1.5-2.8-1.5-3.5c0-0.8,0.4-1.1,1.1-1.1c0.5,0,1.1,0.5,1.7,1 c3.5,3.5,7.3,5.9,11.3,5.9c3.6,0,5.8-2,5.8-4.5c0-3.1-3-3.7-8-4.8c-5.3-1.3-11.2-3-11.2-8.4c0-4.1,3.7-7.4,9.2-7.4 c3.1,0,5.4,1,6.3,1c0.9,0,0.9-1.1,2-1.1c0.9,0,1.4,0.8,2,1.9l1.8,2.9c0.6,1,1.2,2.1,1.2,2.7c0,0.7-0.5,1.1-1,1.1s-1.1-0.5-1.7-1 c-2.8-2.6-6.5-4.7-10-4.7c-2.9,0-4.7,1.5-4.7,3.5c0,2.8,2.6,3.4,8,4.7c5.7,1.4,11.2,3.1,11.2,8.9c0,5-4.4,8.1-10.7,8.1 c-3.7,0-6.2-1.2-7.1-1.2c-1,0-1.1,1.4-2.3,1.4C347.3,231.9,346.9,231,346.5,230.2z" class="st31"/><path d="M385.4,218c0-8.4,6.3-14.6,14.8-14.6c8.3,0,14.2,5.9,14.2,14.3c0,8.3-6.3,14.5-14.8,14.5 C391.2,232.1,385.4,226.2,385.4,218z M409.1,219.5c0-6.9-4.1-13.2-10-13.2c-5.2,0-8.4,4.1-8.4,9.6c0,6.8,4.1,13.2,10,13.2 C405.9,229.2,409.1,225,409.1,219.5z" class="st31"/><path d="M423.1,196.2c0,2.7,1.5,5,2.1,8.2h6.4c0.7,0,1,0.3,1,0.8c0,0.4-0.1,0.9-0.2,1.3c-0.2,0.6-0.4,0.9-1,0.9h-6 v18c0,4.4,4.5,2.7,4.5,4.9c0,0.5-0.4,1.1-1.2,1.1c-1.4,0-3.3-0.2-5.6-0.2c-2,0-3.6,0.2-4.8,0.2c-0.9,0-1.3-0.6-1.3-1.1 c0-2.1,3.4-0.5,3.4-4.9v-18h-3.6c-0.5,0-0.9-0.3-1-0.9c-0.1-0.3-0.2-0.9-0.2-1.3c0-0.5,0.3-0.8,0.9-0.8h3.7 c-0.4-2.6-1.6-4.5-1.6-7.3c0-4.7,3.5-7.4,8-7.4c3.5,0,7.4,1.7,7.4,4c0,1.3-0.6,2.5-1.5,4.2c-0.3,0.7-0.8,1.2-1.4,1.2 c-0.7,0-1.1-0.5-1.3-1.3c-0.5-3.6-1.6-5.3-3.6-5.3C424.6,192.5,423.1,193.9,423.1,196.2z" class="st31"/><path d="M476.8,228.9c0,1-2.1,2.7-4.6,2.7c-2.2,0-4.2-1.3-5-4.1c-2.1,2.5-5.7,4.3-10,4.3c-5.6,0-9.3-3.3-9.3-8.1 c0-4.7,4.1-8.6,11.1-8.6c2.4,0,4.5,0.4,6.5,1l-0.1-0.7c-0.8-6-2.9-7.9-6.5-7.9c-2.5,0-4.7,1.3-6.6,3.1c-0.5,0.4-1,0.7-1.4,0.7 c-0.5,0-1.1-0.4-1.1-1.1c0-0.5,0.3-1,0.9-1.7c1.8-2.5,5.8-4.7,9.9-4.7c7,0,8.8,4.8,9.5,10.1l1.4,9.2c0.5,4.1,1.7,4.5,4.6,5.1 C476.5,228.2,476.8,228.5,476.8,228.9z M466.6,224.3l-0.8-5.4c-1.9-0.7-3.9-1.1-5.8-1.1c-4.6,0-7,2.1-7,5.3 c0,3.1,2.3,5.3,5.7,5.3C462,228.5,465,226.5,466.6,224.3z" class="st31"/><path d="M514.9,231.1h-16.5c-2,0-3.9,0.2-4.8,0.2c-1.1,0-1.5-0.5-1.5-1.1c0-2.1,3.7-0.7,3.7-4.4V198 c0-3.7-3.7-2.3-3.7-4.5c0-0.5,0.4-1.1,1.4-1.1c1.3,0,2.8,0.2,4.9,0.2c2.1,0,3.8-0.2,5-0.2c1,0,1.4,0.5,1.4,1.1 c0,2.1-3.6,0.8-3.6,4.5v28.2c0,1.5,0.7,2.1,2.1,2.1h6.8c4.5,0,7.1-2.8,11.1-6.8c0.8-0.8,1.2-1.3,1.9-1.3c0.6,0,1.1,0.4,1.1,1.1 c0,0.8-0.4,1.7-1.5,4.1l-2.3,4.7c-0.7,1.4-1.3,2.2-2.2,2.2C516.9,232.3,516.7,231.1,514.9,231.1z" class="st31"/><path d="M524.9,230.2c0-2.1,3.4-0.5,3.4-4.9V212c0-3.4-3.9-1.5-3.9-3.7c0-0.9,1-1.5,3.8-2.8 c2.8-1.4,3.4-1.5,3.8-1.5c0.9,0,1.1,0.7,1.1,1.9v19.5c0,4.4,3.5,2.8,3.5,4.9c0,0.5-0.4,1.1-1.2,1.1c-1.2,0-2.8-0.2-4.8-0.2 c-1.9,0-3.4,0.2-4.6,0.2C525.3,231.3,524.9,230.7,524.9,230.2z M526.4,195.3c0-2.1,2.1-4.4,4.8-4.4c1.6,0,3.1,1,3.1,2.8 c0,2.1-2.2,4.4-5,4.4C527.8,198.1,526.4,197.1,526.4,195.3z" class="st31"/><path d="M545.8,196.2c0,2.7,1.5,5,2.1,8.2h6.4c0.7,0,1,0.3,1,0.8c0,0.4-0.1,0.9-0.2,1.3c-0.2,0.6-0.4,0.9-1,0.9h-6 v18c0,4.4,4.5,2.7,4.5,4.9c0,0.5-0.4,1.1-1.2,1.1c-1.4,0-3.3-0.2-5.6-0.2c-2,0-3.6,0.2-4.8,0.2c-0.9,0-1.3-0.6-1.3-1.1 c0-2.1,3.4-0.5,3.4-4.9v-18h-3.6c-0.5,0-0.9-0.3-1-0.9c-0.1-0.3-0.2-0.9-0.2-1.3c0-0.5,0.3-0.8,0.9-0.8h3.7 c-0.4-2.6-1.6-4.5-1.6-7.3c0-4.7,3.5-7.4,8-7.4c3.5,0,7.4,1.7,7.4,4c0,1.3-0.6,2.5-1.5,4.2c-0.3,0.7-0.8,1.2-1.4,1.2 c-0.7,0-1.1-0.5-1.3-1.3c-0.5-3.6-1.6-5.3-3.6-5.3C547.3,192.5,545.8,193.9,545.8,196.2z" class="st31"/><path d="M581.1,225.5c0,0.3-0.2,0.8-0.5,1.3c-2,2.9-6.8,5.3-11.5,5.3c-7.4,0-13.7-5.2-13.7-14.3 c0-8.6,6.3-14.5,13.4-14.5c6.7,0,11.2,5.1,11.2,10.5c0,1.1-0.3,1.5-1.1,1.7l-17.5,5.2c1.5,4.5,5,7.6,9.5,7.6 c3.2,0,5.9-1.4,7.7-3.4c0.5-0.5,1-0.8,1.4-0.8C580.6,224.2,581.1,224.8,581.1,225.5z M560.6,215.8c0,0.8,0.1,1.5,0.2,2.2 l12.6-3.9c1-0.3,1.3-0.5,1.3-1.5c0-2.7-2.6-6.1-6.4-6.1C563.8,206.5,560.6,210.2,560.6,215.8z" class="st31"/><path d="M602.2,226.6c0,0.7-0.4,1.4-1.1,2.1c-2,2.1-4.6,3.1-7.6,3.1c-4.2,0-7.1-2.3-7.1-5.1c0-1.1,0.1-5.3,0.1-9.1 v-10.2H583c-1,0-1.6-0.4-1.6-1.3c0-0.7,0.5-1.1,1.4-1.5c3.3-1.4,4.7-3.3,6-8.3c0.5-1.4,0.8-2.1,1.6-2.1c0.6,0,1,0.4,1,1.4v8.8 h9.3c0.6,0,0.9,0.3,0.9,0.8c0,0.4-0.1,0.9-0.2,1.3c-0.1,0.6-0.4,0.9-1,0.9h-9.1v15.8c0,4,1.6,5.2,3.8,5.2c2.2,0,3.5-1.3,4.6-2.2 c0.3-0.3,0.8-0.7,1.3-0.7C601.8,225.4,602.2,225.9,602.2,226.6z" class="st31"/><path d="M604.4,230.2c0-2.1,3.4-0.5,3.4-4.9V212c0-3.4-3.9-1.5-3.9-3.7c0-0.9,1-1.5,3.8-2.8 c2.8-1.4,3.4-1.5,3.8-1.5c0.9,0,1.1,0.7,1.1,1.9v19.5c0,4.4,3.5,2.8,3.5,4.9c0,0.5-0.4,1.1-1.2,1.1c-1.2,0-2.8-0.2-4.8-0.2 c-1.9,0-3.4,0.2-4.6,0.2C604.8,231.3,604.4,230.7,604.4,230.2z M605.9,195.3c0-2.1,2.1-4.4,4.8-4.4c1.6,0,3.1,1,3.1,2.8 c0,2.1-2.2,4.4-5,4.4C607.3,198.1,605.9,197.1,605.9,195.3z" class="st31"/><path d="M666,230.3c0,0.7-0.7,1-1.5,1c-1.5,0-2.6-0.2-4.7-0.2c-2.3,0-3.2,0.2-4.7,0.2c-0.9,0-1.6-0.5-1.6-1.1 c0-2,3.7-0.7,3.7-4c0-0.4-0.1-1.1-0.2-1.6l-1.4-9.2c-0.4-2.8-1-7.4-5.3-7.4c-3.2,0-6.2,2.3-6.2,7.7v9.7c0,4.4,3.6,2.8,3.6,4.9 c0,0.5-0.4,1.1-1.3,1.1c-1.2,0-2.8-0.2-4.8-0.2c-1.9,0-3.4,0.2-4.6,0.2c-0.9,0-1.3-0.6-1.3-1.1c0-2.1,3.4-0.5,3.4-4.9v-10 c0-3.2-0.7-7.4-5-7.4c-3.3,0-6.8,2.5-6.8,8.1v9.3c0,4.4,3.5,2.8,3.5,4.9c0,0.5-0.4,1.1-1.2,1.1c-1.2,0-2.8-0.2-4.8-0.2 c-1.9,0-3.4,0.2-4.6,0.2c-0.9,0-1.3-0.6-1.3-1.1c0-2.1,3.4-0.5,3.4-4.9V212c0-3.4-3.9-1.5-3.9-3.7c0-0.9,1-1.5,3.8-2.8 c2.8-1.4,3.4-1.5,3.9-1.5c0.9,0,1.1,0.8,1.1,1.9v3.2c1.7-2.8,4.6-5.3,8.7-5.3c4,0,6.2,2.5,7.2,5.4c1.5-2.9,4.2-5.4,8.4-5.4 c6.3,0,8,5.6,8.7,10.8l1.5,10.2C662.8,229.9,666,228.1,666,230.3z" class="st31"/><path d="M692,225.5c0,0.3-0.2,0.8-0.5,1.3c-2,2.9-6.8,5.3-11.5,5.3c-7.4,0-13.7-5.2-13.7-14.3 c0-8.6,6.3-14.5,13.4-14.5c6.7,0,11.2,5.1,11.2,10.5c0,1.1-0.3,1.5-1.1,1.7l-17.5,5.2c1.5,4.5,5,7.6,9.5,7.6 c3.2,0,5.9-1.4,7.7-3.4c0.5-0.5,1-0.8,1.4-0.8C691.5,224.2,692,224.8,692,225.5z M671.5,215.8c0,0.8,0.1,1.5,0.2,2.2l12.6-3.9 c1-0.3,1.3-0.5,1.3-1.5c0-2.7-2.6-6.1-6.4-6.1C674.7,206.5,671.5,210.2,671.5,215.8z" class="st31"/></g><path d="M172.9,186.6c-32.5,1.5-29.1,5.1-28.4,8.6c0.3,1.7,156.2-9.8,156.2-9.8c46-2.1,123.5-8.1,166.4-11.6 c80.9-6.6,98.4-5.7,162.8-12.1c5.4-0.5,61.9-5.2,61.8-5.4c-0.1-0.3-32.1,1.2-40.2,1.6c-89.4,4.1-258.4,17.7-339.7,21.4 c-37.9,1.7-6.3,0.4-36.1,1.8C224.2,183.4,205.4,185.2,172.9,186.6z" class="st41"/></g><g><g><path d="M548.8,66.1c6.7,0,10.3-5.7,10.3-9.7c0-4.3-3-7-7.6-7c-5.5,0-10.6,4.5-10.6,9.4 C540.9,63.4,544.3,66.1,548.8,66.1z" class="st31"/><path d="M816.8,78.5c4-6.9,6.1-11.5,6.1-14.2c0-3.7-2.7-6.4-7.8-6.4c-5.5,0-12,6.9-12,16.8v2.1 c-4.9,10.8-9.2,19.5-14.2,27.6c-1.1,1-2.1,2.3-3.1,4c-6.1,9.4-15.1,18.3-24.9,24l3.9-11.1c2.4-6.9,6-19.3,9.4-27.7 c5.5-8.8,7.5-12.9,7.5-15.3c0-3-2.2-5.1-5.7-5.1c-4.3,0-7.8,2.4-11.7,11.5c-4,9.4-9,20.8-14.2,28.3 c-5.7,8.2-11.2,14.5-16.8,14.5c-1.9,0-4.5-1.8-4.5-6.6c0-7.3,3.4-16.3,8.5-27c5.7-9.1,7.6-13.3,7.6-15.7c0-3-2.2-5.1-5.7-5.1 c-4.3,0-7.8,3-12.7,12.7c-3.1,6.1-6.5,13.4-8.9,20.5c-0.4,0.6-0.9,1.3-1.3,2c-6.7,10.5-14.7,20.1-21,20.1 c-2.4,0-4.3-2.1-4.3-6.7c0-7.6,4.5-18.3,10.2-30.9c4.3-7,6.1-10.5,6.1-12.6c0-3-2.1-5.1-5.7-5.1s-7.6,3-9.6,7.6 c-2.8-5.1-7.3-7.6-13.6-7.6c-17.1,0-35.5,15.6-41.3,33.6c-0.4,0.5-0.7,1-1.1,1.6c-6.7,10.5-14.7,20.1-21,20.1 c-2.4,0-4.3-2.1-4.3-6.7c0-5.5,3.7-16.3,9.4-30.9c3.6-9.6,8.2-20.5,11.8-28.6c6.1-10.2,8.4-15.7,8.4-19c0-2.7-2.1-4.8-5.5-4.8 c-3.3,0-7.3,2.1-9.6,6.9c-3.4,7.9-9.7,23.2-14.1,34.6c-2.8-4.5-7.2-6.7-13-6.7c-17.7,0-36.7,16.7-41.8,35.5 c-6.7,10.4-14.7,19.8-21,19.8c-2.8,0-5.1-2.1-5.1-7.5c0-7.3,3.3-16.3,8.4-27c5.7-9.1,7.6-13.3,7.6-15.7c0-3-2.2-5.1-5.7-5.1 c-3.9,0-7.6,3-12.7,12.7c-3.1,6-6.5,13.4-8.7,20.5c-0.4,0.6-0.9,1.3-1.3,2c-6.7,10.5-15,19.9-21.3,19.9c-3,0-5.2-2.4-5.2-7.3 c0-9,5.5-24,12.7-39.9h0.2c9.6-16.3,18.3-31.3,18.3-37.2c0-3.3-2.4-5.5-6-5.5c-3.1,0-8.1,4.6-12.3,12.7c-8.4,16-19,38.5-23.9,55 c-0.5,0.7-1,1.4-1.5,2.3c-5.8,9-12,12.7-18.1,12.7c-1.4,0-2.4-0.1-3.4-0.3c6.3-7.9,10.5-17.5,10.5-26.8 c0-13.2-8.7-20.8-23.4-20.8c-16.8,0-36.1,15.7-40.1,35c0,0.1-0.1,0.1-0.1,0.2c-6.7,10.5-14.8,20.1-21.1,20.1c-2.4,0-4-1.9-4-5.4 c0-12.1,13.8-24.9,13.8-37.2c0-7.6-6.1-12.7-14.1-12.7c-8.1,0-18.1,7.9-26.4,17.1L365,58.8c5.5-9.1,7-13,7-15.1 c0-3-2.2-5.2-6.1-5.2c-3.7,0-6.9,2.2-8.8,6.7c-10,23.8-23.2,54.9-32.4,83c-0.4,1.5-0.6,2.2-0.6,3.6c0,3.9,2.8,5.5,5.7,5.5 c4.5,0,6.1-3,7-5.8c3.4-10.8,10.2-23.4,16.2-30.4c6.7-8.1,16.5-18,22.9-18c1.8,0,2.8,0.9,2.8,2.2c0,9.7-13.6,24.4-13.6,36.7 c0,9.6,6.1,15.3,15.9,15.3c8.5,0,16.6-5.3,23.8-13c3.3,8.6,11.6,13,22.2,13c7.8,0,15.6-3.3,22.2-8.5c2.8,0.7,6.3,1.2,9.9,1.2 c6.8,0,13-2,18.7-6c1.2,8.9,7.5,13.3,17,13.3c7.9,0,15.5-4.6,22.3-11.4c1.8,7.6,7.9,11.4,16.5,11.4c8,0,15.7-4.8,22.6-11.8 c2.6,7.7,9.5,11.8,18.3,11.8c8.1,0,15.9-5.2,22.5-12.9c1.2,8.4,8.1,12.9,16.3,12.9c9.5,0,16.8-4.8,23.1-11.8 c2.6,7.7,9.5,11.8,18.3,11.8c8.1,0,15.9-5.2,22.5-12.9c1.2,8.4,8.1,12.9,16.3,12.9c7.8,0,15.2-4.5,21.9-11.2 c1.8,7.4,7.5,11.2,15.4,11.2c6.3,0,12.4-4,18.1-10.3c-1.2,3.6-2.4,7.5-4.2,12.1c-26.7,7.6-41.5,12-41.5,25.2 c0,7.9,8.1,13.2,17.8,13.2c14.7,0,27.3-13.9,35.2-32.8c11-4.2,19.3-9.6,26.1-16c3.6,5.1,11,8.6,22,8.6 c17.1,0,26.1-9.9,26.1-22.8C830.6,100.9,820.2,89.3,816.8,78.5z M446.6,113.9c-4.3,0.3-7.6,3-7.6,6.7c0,0.6,0.1,1.3,0.6,2.1 c-3.4,2.8-7.2,4.6-10.9,4.6c-5.4,0-9.7-3.7-9.7-11.4c0-16.6,14.7-33,25-33c5.1,0,8.5,3.3,8.5,10.6 C452.5,100.6,450.2,107.9,446.6,113.9z M595.5,113c-5.7,8.4-11.8,14.7-17.8,14.7c-4,0-7-3-7-9c0-16.9,15.6-36.1,27.3-36.1 c5.7,0,9,2.7,9.6,7.2C604,98.3,600.6,105.2,595.5,113z M675.8,113c-5.7,8.4-11.8,14.7-17.8,14.7c-4,0-7-3-7-9 c0-17.1,15.6-36.1,27.3-36.1c5.7,0,9,2.7,9.6,7.2C684.3,98.3,680.9,105.2,675.8,113z M721.3,168.8c-2.7,0-4.9-1.5-4.9-4.5 c0-7,9-10.8,24.6-15.3C735.3,161.1,727.5,168.8,721.3,168.8z M804.3,128c-7.3,0-10.3-5.5-10.3-8.1c0-2.1,0.6-4.5,3.6-9.1 c4.3-6.6,8.1-13,11.4-19.5c3.6,7.6,7.5,14.5,7.5,23.8C816.5,122.2,811.8,128,804.3,128z" class="st31"/></g><g><path d="M141.6,132.5c0,2.4-1.9,4.1-4.8,4.1c-3.9,0-9.6-0.6-18.3-0.6c-8.7,0-16.9,0.6-22,0.6 c-4.3,0-6.7-1.5-6.7-4.6c0-6.7,12.4-4.4,12.4-11.9c0-1.7-0.6-3.7-1.5-6.5L93.1,95c-1.1-3.1-2.2-4.3-5.7-4.3H45.7 c-3.5,0-4.6,1.1-5.7,4.3l-7.4,18.5c-1.1,3-1.9,4.8-1.9,6.5c0,7.4,12.8,5.6,12.8,12c0,3.1-2.4,4.6-6.7,4.6 c-5.2,0-10.4-0.6-16.1-0.6S11,136.6,7,136.6c-3.1,0-5-1.7-5-4.1c0-7.4,10-4.1,14.8-16.3l29.6-75.4C49.9,32,53.6,22.2,56,15 C59.6,4.6,61,3.3,72.2,3.3c10.9,0,12,1.5,15.6,11.7c2.6,7.2,6.3,17,9.8,25.9l29.4,75C132,128.3,141.6,125.5,141.6,132.5z M85.5,75.1L66.4,26.8L47.5,75c-0.7,2-0.2,3.5,2.2,3.5h33.1C85.9,78.5,86.2,76.8,85.5,75.1z" class="st31"/><path d="M157.5,132c0-8.1,14.6-3.3,14.6-15.9V24.8c0-5.6-1.9-8.1-7.4-8.1h-5.4c-12.2,0-20.9,7.4-33.1,21.5 c-2.6,3-4.3,4.6-6.9,4.6c-2.4,0-4.4-1.9-4.4-5.2c0-3,1.3-6.3,4.1-12.8l6.3-15c2.8-6.9,5-9.3,8.7-9.3c4.4,0,5.2,4.1,11.5,4.1 h77.8c6.5,0,7.2-4.1,11.7-4.1c3.7,0,5.7,2.4,8.7,9.3l6.3,15c2.6,6.5,4.1,9.8,4.1,12.8c0,3.3-2.2,5.2-4.6,5.2s-4.1-1.7-6.7-4.6 c-12.2-14.1-21.1-21.5-33.3-21.5h-5.2c-5.6,0-7.4,2.6-7.4,8.1v91.3c0,12.6,14.6,7.8,14.6,15.9c0,2.4-1.5,4.6-5.6,4.6 c-5.4,0-12-0.6-21.5-0.6c-9.3,0-16.1,0.6-21.5,0.6C159,136.6,157.5,134.4,157.5,132z" class="st31"/><path d="M256.8,132.2c0-7.6,11.9-3.3,11.9-16.1V24.6c0-12.8-11.9-8.5-11.9-16.1c0-2.2,1.9-4.4,5.9-4.4 c4.4,0,9.3,0.6,18,0.6c8.7,0,14.3-0.6,18.7-0.6c4.1,0,5.6,2.2,5.6,4.4c0,7.6-11.9,3.3-11.9,16.1v91.5c0,12.8,11.9,8.5,11.9,16.1 c0,2.2-1.5,4.4-5.6,4.4c-4.4,0-10-0.6-18.7-0.6c-8.7,0-13.9,0.6-18.3,0.6C258.3,136.6,256.8,134.4,256.8,132.2z" class="st31"/></g></g></g></g></svg>