<svg xmlns="http://www.w3.org/2000/svg" width="250" height="72.728" viewBox="0 0 250 72.728">
  <g id="Group_395" data-name="Group 395" transform="translate(-2118.944 -942.782)">
    <g id="Group_2" data-name="Group 2" transform="translate(2160.486 989.75)">
      <g id="Group_1" data-name="Group 1" transform="translate(0 10.106)">
        <path id="Path_1" data-name="Path 1" d="M2256.681,1145.187a7.369,7.369,0,0,1,.461-1.908c.082-.263.263-.428.444-.428.214,0,.362.148.4.445.148,1.726.674,2.384,1.677,2.384a1.618,1.618,0,0,0,1.611-1.826l-.016-7.5c.016-1.1-1.216-.658-1.216-1.348,0-.165.131-.329.411-.329.411,0,.937.05,1.627.05.625,0,1.135-.05,1.513-.05.3,0,.411.164.411.329,0,.641-1.085.247-1.1,1.348l.016,7.317c0,2.039-1.414,2.911-3.256,2.911C2258.161,1146.584,2256.681,1145.992,2256.681,1145.187Z" transform="translate(-2256.681 -1133.857)" fill="#fff"/>
        <path id="Path_2" data-name="Path 2" d="M2282.843,1150.039a4.313,4.313,0,0,1,4.473-4.407,4.109,4.109,0,0,1,4.275,4.308,4.3,4.3,0,0,1-4.473,4.374A4.1,4.1,0,0,1,2282.843,1150.039Zm7.153.477c0-2.072-1.234-3.979-3.026-3.979-1.562,0-2.532,1.25-2.532,2.911,0,2.055,1.233,3.979,3.026,3.979A2.618,2.618,0,0,0,2290,1150.515Z" transform="translate(-2274.948 -1141.504)" fill="#fff"/>
        <path id="Path_3" data-name="Path 3" d="M2322.712,1153.614c0,.313-.3.477-1.332.724a5.867,5.867,0,0,1-1.151.23c-.3,0-.345-.3-.345-.559v-.954a3.086,3.086,0,0,1-2.779,1.578c-1.858,0-2.746-1.25-2.746-3.19V1148.6c0-.987-1.315-.608-1.315-1.2,0-.3.279-.461,1.25-.823a4.049,4.049,0,0,1,1.167-.345c.345,0,.378.329.378.592v4.39c0,1.316.362,2.22,1.76,2.22a2.306,2.306,0,0,0,2.286-2.5V1148.6c0-.987-1.447-.576-1.447-1.2,0-.28.3-.444,1.382-.839a4.447,4.447,0,0,1,1.2-.329c.3,0,.346.3.346.592v5.492C2321.364,1153.318,2322.712,1153.072,2322.712,1153.614Z" transform="translate(-2296.034 -1141.923)" fill="#fff"/>
        <path id="Path_4" data-name="Path 4" d="M2354.038,1146.769a6.63,6.63,0,0,1-.3,1.382c-.082.279-.213.444-.443.444-.213,0-.312-.18-.411-.444-.213-.51-.427-.757-.773-.757-.789,0-2.154,1.266-2.154,3.568v1.562c0,1.332,1.282.806,1.282,1.48a.337.337,0,0,1-.362.329c-.411,0-.987-.049-1.661-.049-.575,0-1.035.049-1.381.049a.349.349,0,0,1-.395-.329c0-.625,1.036-.148,1.036-1.48V1148.5c0-1.02-1.167-.461-1.167-1.1,0-.263.3-.444,1.15-.855s1.02-.46,1.151-.46c.264,0,.346.214.346.576v1.693a3.4,3.4,0,0,1,2.91-2.335C2353.561,1146.013,2354.038,1146.358,2354.038,1146.769Z" transform="translate(-2319.962 -1141.77)" fill="#fff"/>
        <path id="Path_5" data-name="Path 5" d="M2381.366,1154.042c0,.231-.2.329-.46.329-.427,0-.774-.049-1.431-.049-.674,0-.97.049-1.414.049-.3,0-.461-.148-.461-.345,0-.592,1.1-.2,1.1-1.217,0-.131-.033-.329-.049-.493l-.395-2.779c-.132-.839-.428-2.22-1.727-2.22a2.189,2.189,0,0,0-2.055,2.467v2.779c0,1.332,1.068.855,1.068,1.479a.337.337,0,0,1-.362.329c-.361,0-.854-.049-1.447-.049-.575,0-1.036.049-1.382.049a.349.349,0,0,1-.394-.329c0-.625,1.036-.148,1.036-1.479v-4.029c0-1.02-1.167-.46-1.167-1.1,0-.263.3-.444,1.15-.855.838-.411,1.02-.461,1.151-.461.264,0,.346.214.346.575v.97a3.061,3.061,0,0,1,2.647-1.6c1.956,0,2.433,1.907,2.614,3.256l.427,3.075C2380.363,1153.944,2381.366,1153.4,2381.366,1154.042Z" transform="translate(-2337.08 -1141.808)" fill="#fff"/>
        <path id="Path_6" data-name="Path 6" d="M2411.452,1152.308a.84.84,0,0,1-.148.395,4.485,4.485,0,0,1-3.47,1.611,4.028,4.028,0,0,1-4.127-4.308,4.166,4.166,0,0,1,4.045-4.374,3.251,3.251,0,0,1,3.371,3.157c0,.345-.1.444-.345.526l-5.279,1.578a3.02,3.02,0,0,0,5.2,1.283.651.651,0,0,1,.428-.247A.353.353,0,0,1,2411.452,1152.308Zm-6.2-2.911a4.264,4.264,0,0,0,.049.658l3.8-1.184c.3-.082.378-.164.378-.444a1.958,1.958,0,0,0-1.94-1.842C2406.239,1146.586,2405.253,1147.7,2405.253,1149.4Z" transform="translate(-2359.338 -1141.504)" fill="#fff"/>
        <path id="Path_7" data-name="Path 7" d="M2438.367,1146.761c0,.51-.855.362-1.249,1.3l-3.076,7.252c-.641,1.529-1.545,2.417-2.745,2.417a1.551,1.551,0,0,1-1.135-.362,4.535,4.535,0,0,1-.51-1.776c0-.247.131-.444.346-.444.181,0,.263.1.411.312.477.74.855,1.1,1.282,1.1.559,0,1.085-.641,1.53-1.727l.1-.247-2.894-6.5c-.427-.97-1.25-.822-1.25-1.332,0-.214.165-.312.378-.312.428,0,.872.049,1.578.049.625,0,1.086-.049,1.447-.049.263,0,.428.115.428.345,0,.543-.953.329-.953,1.086a2.826,2.826,0,0,0,.246.9l1.793,4.193,1.71-4.193a3.221,3.221,0,0,0,.28-.97c0-.675-1-.477-1-1.02,0-.23.164-.345.428-.345.329,0,.772.049,1.2.049.461,0,.855-.049,1.267-.049C2438.2,1146.449,2438.367,1146.564,2438.367,1146.761Z" transform="translate(-2377.121 -1142.075)" fill="#fff"/>
        <path id="Path_8" data-name="Path 8" d="M2461.321,1153.95l-.493-1.053a3.32,3.32,0,0,1-.444-1.052.307.307,0,0,1,.329-.345.87.87,0,0,1,.51.312,5.072,5.072,0,0,0,3.42,1.776c1.085,0,1.76-.608,1.76-1.365,0-.921-.9-1.118-2.4-1.464-1.595-.394-3.387-.9-3.387-2.532,0-1.249,1.1-2.236,2.763-2.236a11.246,11.246,0,0,1,1.891.3c.279,0,.279-.329.592-.329.28,0,.428.247.609.559l.542.888a2.231,2.231,0,0,1,.363.822.317.317,0,0,1-.313.329c-.164,0-.345-.164-.509-.313a4.81,4.81,0,0,0-3.026-1.413c-.871,0-1.414.444-1.414,1.052,0,.838.773,1.019,2.4,1.414,1.71.428,3.387.921,3.387,2.68,0,1.5-1.331,2.451-3.222,2.451a10.074,10.074,0,0,1-2.138-.362c-.312,0-.345.411-.707.411C2461.568,1154.476,2461.436,1154.2,2461.321,1153.95Z" transform="translate(-2398.911 -1141.732)" fill="#fff"/>
        <path id="Path_9" data-name="Path 9" d="M2502.342,1150.039a4.313,4.313,0,0,1,4.473-4.407,4.109,4.109,0,0,1,4.275,4.308,4.3,4.3,0,0,1-4.473,4.374A4.1,4.1,0,0,1,2502.342,1150.039Zm7.153.477c0-2.072-1.234-3.979-3.026-3.979-1.562,0-2.532,1.25-2.532,2.911,0,2.055,1.233,3.979,3.026,3.979A2.618,2.618,0,0,0,2509.5,1150.515Z" transform="translate(-2428.207 -1141.504)" fill="#fff"/>
        <path id="Path_10" data-name="Path 10" d="M2534.92,1133.928a16.905,16.905,0,0,0,.625,2.467h1.94c.2,0,.3.082.3.23a2.542,2.542,0,0,1-.05.378c-.049.181-.132.263-.312.263h-1.81v5.443c0,1.332,1.349.806,1.349,1.479a.338.338,0,0,1-.362.329c-.428,0-1-.049-1.678-.049-.609,0-1.086.049-1.447.049a.344.344,0,0,1-.379-.329c0-.625,1.036-.148,1.036-1.479v-5.443h-1.085a.276.276,0,0,1-.3-.263,2.542,2.542,0,0,1-.05-.378c0-.148.1-.23.28-.23h1.1a11.646,11.646,0,0,1-.478-2.2,2.2,2.2,0,0,1,2.4-2.236c1.052,0,2.219.51,2.219,1.217a2.866,2.866,0,0,1-.444,1.266c-.1.2-.247.362-.427.362-.214,0-.346-.148-.38-.395-.164-1.085-.477-1.6-1.085-1.6A1,1,0,0,0,2534.92,1133.928Z" transform="translate(-2449.404 -1131.955)" fill="#fff"/>
        <path id="Path_11" data-name="Path 11" d="M2573.563,1153.61c0,.312-.625.806-1.4.806a1.545,1.545,0,0,1-1.513-1.25,3.911,3.911,0,0,1-3.009,1.3,2.5,2.5,0,0,1-2.8-2.45c0-1.431,1.25-2.581,3.338-2.581a6.688,6.688,0,0,1,1.957.312l-.033-.213c-.247-1.825-.888-2.384-1.973-2.384a3.05,3.05,0,0,0-2.007.937.71.71,0,0,1-.41.2.33.33,0,0,1-.33-.329.929.929,0,0,1,.263-.526,3.863,3.863,0,0,1,2.977-1.414c2.121,0,2.648,1.463,2.878,3.059l.411,2.763c.164,1.233.526,1.364,1.381,1.529C2573.48,1153.4,2573.563,1153.478,2573.563,1153.61Zm-3.075-1.382-.23-1.627a4.954,4.954,0,0,0-1.743-.329c-1.382,0-2.1.625-2.1,1.611a1.592,1.592,0,0,0,1.727,1.6A3.056,3.056,0,0,0,2570.488,1152.228Z" transform="translate(-2471.85 -1141.77)" fill="#fff"/>
        <path id="Path_12" data-name="Path 12" d="M2615.969,1146.37H2611c-.592,0-1.185.049-1.448.049-.329,0-.46-.148-.46-.345,0-.625,1.1-.214,1.1-1.316v-8.4c0-1.1-1.1-.707-1.1-1.348,0-.165.131-.329.427-.329.379,0,.855.05,1.48.05s1.151-.05,1.512-.05c.3,0,.412.164.412.329,0,.641-1.085.247-1.085,1.348v8.5c0,.444.2.625.641.625h2.04c1.348,0,2.154-.839,3.354-2.055.23-.247.361-.395.559-.395a.337.337,0,0,1,.345.345,3.479,3.479,0,0,1-.46,1.25l-.69,1.414c-.2.411-.379.675-.658.675C2616.561,1146.716,2616.511,1146.37,2615.969,1146.37Z" transform="translate(-2502.745 -1133.857)" fill="#fff"/>
        <path id="Path_13" data-name="Path 13" d="M2641.568,1145.1c0-.625,1.035-.148,1.035-1.48v-4.029c0-1.02-1.167-.46-1.167-1.1,0-.263.3-.444,1.152-.855.838-.411,1.019-.46,1.151-.46.263,0,.345.214.345.575v5.87c0,1.332,1.069.855,1.069,1.48a.338.338,0,0,1-.362.329c-.362,0-.855-.049-1.447-.049-.575,0-1.035.049-1.382.049A.349.349,0,0,1,2641.568,1145.1Zm.444-10.524a1.441,1.441,0,0,1,1.447-1.315.852.852,0,0,1,.921.838,1.491,1.491,0,0,1-1.5,1.316A.828.828,0,0,1,2642.012,1134.578Z" transform="translate(-2525.326 -1132.868)" fill="#fff"/>
        <path id="Path_14" data-name="Path 14" d="M2657.661,1133.928a16.9,16.9,0,0,0,.625,2.467h1.941c.2,0,.3.082.3.23a2.646,2.646,0,0,1-.049.378c-.049.181-.132.263-.312.263h-1.809v5.443c0,1.332,1.348.806,1.348,1.479a.338.338,0,0,1-.362.329c-.428,0-1-.049-1.677-.049-.608,0-1.085.049-1.447.049a.343.343,0,0,1-.378-.329c0-.625,1.036-.148,1.036-1.479v-5.443h-1.085a.277.277,0,0,1-.3-.263,2.679,2.679,0,0,1-.049-.378c0-.148.1-.23.28-.23h1.1a11.646,11.646,0,0,1-.477-2.2,2.2,2.2,0,0,1,2.4-2.236c1.052,0,2.22.51,2.22,1.217a2.856,2.856,0,0,1-.445,1.266c-.1.2-.246.362-.427.362-.214,0-.346-.148-.379-.395-.164-1.085-.476-1.6-1.085-1.6A1,1,0,0,0,2657.661,1133.928Z" transform="translate(-2535.104 -1131.955)" fill="#fff"/>
        <path id="Path_15" data-name="Path 15" d="M2680.159,1152.308a.839.839,0,0,1-.148.395,4.484,4.484,0,0,1-3.469,1.611,4.028,4.028,0,0,1-4.127-4.308,4.166,4.166,0,0,1,4.045-4.374,3.251,3.251,0,0,1,3.371,3.157c0,.345-.1.444-.345.526l-5.279,1.578a3.02,3.02,0,0,0,5.2,1.283.652.652,0,0,1,.427-.247A.353.353,0,0,1,2680.159,1152.308Zm-6.2-2.911a4.234,4.234,0,0,0,.049.658l3.8-1.184c.3-.082.378-.164.378-.444a1.958,1.958,0,0,0-1.94-1.842C2674.947,1146.586,2673.961,1147.7,2673.961,1149.4Z" transform="translate(-2546.957 -1141.504)" fill="#fff"/>
        <path id="Path_16" data-name="Path 16" d="M2704.678,1146.207a1.007,1.007,0,0,1-.329.641,3.061,3.061,0,0,1-2.285.921c-1.267,0-2.154-.708-2.154-1.546,0-.345.033-1.611.033-2.746v-3.091h-1.069c-.3,0-.477-.132-.477-.378,0-.214.164-.345.428-.461.987-.411,1.43-1,1.808-2.5.148-.428.247-.625.494-.625.181,0,.3.131.3.428v2.663h2.811c.182,0,.28.083.28.231a2.645,2.645,0,0,1-.049.378.277.277,0,0,1-.3.263h-2.746v4.769c0,1.217.477,1.579,1.151,1.579a2.02,2.02,0,0,0,1.382-.674.624.624,0,0,1,.395-.214A.338.338,0,0,1,2704.678,1146.207Z" transform="translate(-2565.097 -1135.074)" fill="#fff"/>
        <path id="Path_17" data-name="Path 17" d="M2721.09,1145.1c0-.625,1.035-.148,1.035-1.48v-4.029c0-1.02-1.167-.46-1.167-1.1,0-.263.3-.444,1.151-.855.838-.411,1.019-.46,1.151-.46.263,0,.345.214.345.575v5.87c0,1.332,1.069.855,1.069,1.48a.337.337,0,0,1-.361.329c-.362,0-.856-.049-1.447-.049-.576,0-1.036.049-1.382.049A.348.348,0,0,1,2721.09,1145.1Zm.444-10.524a1.441,1.441,0,0,1,1.447-1.315.852.852,0,0,1,.921.838,1.491,1.491,0,0,1-1.5,1.316A.828.828,0,0,1,2721.533,1134.578Z" transform="translate(-2580.85 -1132.868)" fill="#fff"/>
        <path id="Path_18" data-name="Path 18" d="M2749.976,1154.059c0,.214-.214.312-.461.312-.46,0-.773-.049-1.43-.049-.708,0-.954.049-1.415.049-.28,0-.477-.148-.477-.345,0-.592,1.119-.2,1.119-1.217a2.715,2.715,0,0,0-.051-.493l-.41-2.779c-.115-.839-.312-2.22-1.595-2.22-.97,0-1.858.707-1.858,2.319v2.927c0,1.332,1.085.855,1.085,1.479a.353.353,0,0,1-.378.329c-.362,0-.839-.049-1.447-.049-.575,0-1.02.049-1.381.049a.359.359,0,0,1-.4-.329c0-.625,1.036-.148,1.036-1.479v-3.026c0-.954-.213-2.22-1.512-2.22a2.164,2.164,0,0,0-2.056,2.45v2.8c0,1.332,1.069.855,1.069,1.479a.337.337,0,0,1-.361.329c-.362,0-.838-.049-1.448-.049-.575,0-1.02.049-1.381.049a.36.36,0,0,1-.4-.329c0-.625,1.036-.148,1.036-1.479v-4.029c0-1.02-1.167-.46-1.167-1.1,0-.263.3-.444,1.134-.855.855-.428,1.02-.461,1.168-.461.279,0,.345.247.345.575v.97a3.051,3.051,0,0,1,2.615-1.6,2.189,2.189,0,0,1,2.171,1.628,2.776,2.776,0,0,1,2.549-1.628c1.891,0,2.417,1.694,2.63,3.256l.444,3.075C2748.989,1153.944,2749.976,1153.4,2749.976,1154.059Z" transform="translate(-2591.145 -1141.808)" fill="#fff"/>
        <path id="Path_19" data-name="Path 19" d="M2791.052,1152.308a.841.841,0,0,1-.148.395,4.482,4.482,0,0,1-3.469,1.611,4.028,4.028,0,0,1-4.127-4.308,4.166,4.166,0,0,1,4.045-4.374,3.251,3.251,0,0,1,3.371,3.157c0,.345-.1.444-.345.526l-5.279,1.578a3.02,3.02,0,0,0,5.2,1.283.651.651,0,0,1,.427-.247A.354.354,0,0,1,2791.052,1152.308Zm-6.2-2.911a4.294,4.294,0,0,0,.05.658l3.8-1.184c.3-.082.378-.164.378-.444a1.958,1.958,0,0,0-1.94-1.842C2785.839,1146.586,2784.852,1147.7,2784.852,1149.4Z" transform="translate(-2624.384 -1141.504)" fill="#fff"/>
      </g>
      <path id="Path_20" data-name="Path 20" d="M2269.729,1107.654c-9.809.448-8.772,1.544-8.57,2.59.1.524,47.141-2.961,47.141-2.961,13.9-.635,37.273-2.452,50.211-3.5,24.408-1.978,29.7-1.719,49.117-3.662,1.617-.162,18.665-1.556,18.648-1.644s-9.687.37-12.139.483c-26.974,1.233-77.988,5.352-102.509,6.473-11.443.523-1.9.13-10.891.541C2285.208,1106.683,2279.538,1107.206,2269.729,1107.654Z" transform="translate(-2259.717 -1098.465)" fill="#fff" fill-rule="evenodd"/>
    </g>
    <g id="Group_5" data-name="Group 5" transform="translate(2118.944 942.782)">
      <g id="Group_3" data-name="Group 3" transform="translate(97.163 11.413)">
        <path id="Path_21" data-name="Path 21" d="M2660.266,996.657a3.085,3.085,0,0,0,3.121-2.94,2.07,2.07,0,0,0-2.306-2.125,3.172,3.172,0,0,0-3.211,2.849A2.187,2.187,0,0,0,2660.266,996.657Z" transform="translate(-2592.445 -988.289)" fill="#fff"/>
        <path id="Path_22" data-name="Path 22" d="M2589.746,992.771c1.221-2.081,1.854-3.483,1.854-4.3,0-1.131-.814-1.945-2.352-1.945-1.674,0-3.619,2.08-3.619,5.066v.633a72.2,72.2,0,0,1-4.3,8.34,5.261,5.261,0,0,0-.936,1.2,23.412,23.412,0,0,1-7.508,7.237l1.176-3.347c.723-2.081,1.809-5.835,2.849-8.368,1.674-2.668,2.262-3.89,2.262-4.613a1.551,1.551,0,0,0-1.719-1.538c-1.311,0-2.352.724-3.528,3.483a52.027,52.027,0,0,1-4.3,8.549c-1.719,2.488-3.393,4.388-5.066,4.388-.588,0-1.358-.543-1.358-1.99,0-2.216,1.041-4.93,2.579-8.142,1.719-2.759,2.306-4.025,2.306-4.749a1.55,1.55,0,0,0-1.718-1.538c-1.312,0-2.352.905-3.845,3.845a45.083,45.083,0,0,0-2.675,6.183c-.135.184-.266.384-.4.6-2.036,3.167-4.432,6.062-6.333,6.062-.724,0-1.312-.634-1.312-2.035,0-2.307,1.357-5.519,3.075-9.318,1.312-2.126,1.855-3.167,1.855-3.8a1.527,1.527,0,0,0-1.719-1.538,3.484,3.484,0,0,0-2.9,2.307,4.357,4.357,0,0,0-4.116-2.307c-5.174,0-10.717,4.693-12.463,10.137-.107.154-.215.317-.324.492-2.036,3.167-4.433,6.062-6.333,6.062-.724,0-1.312-.634-1.312-2.035,0-1.674,1.131-4.93,2.85-9.318,1.085-2.9,2.487-6.2,3.573-8.64,1.854-3.076,2.532-4.749,2.532-5.745a1.5,1.5,0,0,0-1.673-1.447,3.328,3.328,0,0,0-2.895,2.081c-1.041,2.4-2.941,7.011-4.252,10.449a4.339,4.339,0,0,0-3.935-2.035c-5.347,0-11.09,5.047-12.627,10.7-2.026,3.138-4.445,5.989-6.33,5.989-.859,0-1.538-.634-1.538-2.262,0-2.216,1-4.93,2.533-8.142,1.719-2.759,2.307-4.025,2.307-4.749a1.55,1.55,0,0,0-1.719-1.538c-1.175,0-2.307.905-3.844,3.845a40,40,0,0,0-2.634,6.195c-.132.181-.261.377-.393.59-2.035,3.167-4.523,6.016-6.423,6.016-.9,0-1.583-.724-1.583-2.216,0-2.714,1.674-7.237,3.845-12.032h.046c2.895-4.931,5.519-9.453,5.519-11.217a1.654,1.654,0,0,0-1.81-1.674c-.949,0-2.442,1.4-3.708,3.845a109.584,109.584,0,0,0-7.227,16.593c-.155.205-.308.435-.463.685-1.764,2.714-3.619,3.845-5.473,3.845a6.851,6.851,0,0,1-1.041-.09,13.487,13.487,0,0,0,3.167-8.1c0-3.98-2.624-6.287-7.056-6.287-5.07,0-10.886,4.725-12.111,10.575-.011.019-.023.035-.034.054-2.035,3.167-4.478,6.062-6.378,6.062-.724,0-1.222-.588-1.222-1.629,0-3.664,4.162-7.509,4.162-11.217,0-2.307-1.854-3.845-4.251-3.845-2.443,0-5.473,2.4-7.961,5.157l3.89-9.5c1.674-2.759,2.126-3.935,2.126-4.568,0-.9-.678-1.583-1.854-1.583a2.915,2.915,0,0,0-2.669,2.036c-3.03,7.192-7.011,16.555-9.77,25.059a3.215,3.215,0,0,0-.181,1.085,1.6,1.6,0,0,0,1.719,1.674,2.123,2.123,0,0,0,2.126-1.764,29.978,29.978,0,0,1,4.885-9.182c2.035-2.442,4.975-5.428,6.92-5.428.543,0,.859.271.859.679,0,2.94-4.115,7.373-4.115,11.082,0,2.895,1.854,4.614,4.794,4.614,2.551,0,5-1.614,7.169-3.925.983,2.581,3.489,3.925,6.695,3.925a10.965,10.965,0,0,0,6.694-2.578,12.014,12.014,0,0,0,2.986.362,9.507,9.507,0,0,0,5.637-1.809c.377,2.692,2.265,4.026,5.128,4.026,2.37,0,4.673-1.395,6.735-3.445.557,2.295,2.392,3.445,4.976,3.445,2.415,0,4.742-1.447,6.821-3.562.785,2.321,2.854,3.562,5.532,3.562,2.442,0,4.794-1.583,6.785-3.89.362,2.533,2.443,3.89,4.93,3.89,2.865,0,5.066-1.448,6.984-3.562.786,2.321,2.854,3.562,5.532,3.562,2.443,0,4.8-1.583,6.785-3.89.362,2.533,2.442,3.89,4.93,3.89,2.345,0,4.59-1.365,6.609-3.379.542,2.227,2.25,3.379,4.655,3.379,1.9,0,3.754-1.221,5.473-3.121-.362,1.086-.723,2.262-1.266,3.664-8.051,2.307-12.53,3.619-12.53,7.6,0,2.4,2.442,3.98,5.383,3.98,4.433,0,8.232-4.206,10.629-9.905a23.168,23.168,0,0,0,7.883-4.825c1.077,1.525,3.309,2.608,6.624,2.608,5.156,0,7.87-2.986,7.87-6.875C2593.907,999.51,2590.786,996.027,2589.746,992.771Zm-111.7,10.674a2.217,2.217,0,0,0-2.308,2.036,1.235,1.235,0,0,0,.181.633,5.332,5.332,0,0,1-3.3,1.4c-1.629,0-2.941-1.13-2.941-3.437,0-5.021,4.433-9.951,7.554-9.951,1.539,0,2.578.995,2.578,3.212A12.254,12.254,0,0,1,2478.049,1003.445Zm44.915-.271c-1.719,2.533-3.573,4.433-5.383,4.433-1.221,0-2.126-.905-2.126-2.714,0-5.111,4.7-10.9,8.233-10.9,1.719,0,2.714.814,2.9,2.171A38.126,38.126,0,0,1,2522.964,1003.174Zm24.232,0c-1.719,2.533-3.573,4.433-5.383,4.433-1.221,0-2.126-.905-2.126-2.714,0-5.156,4.7-10.9,8.232-10.9,1.719,0,2.714.814,2.895,2.171A38.155,38.155,0,0,1,2547.2,1003.174ZM2560.947,1020a1.343,1.343,0,0,1-1.493-1.357c0-2.126,2.714-3.257,7.418-4.614C2565.153,1017.693,2562.8,1020,2560.947,1020Zm25.045-12.3a2.911,2.911,0,0,1-3.121-2.443,4.986,4.986,0,0,1,1.086-2.759,61.782,61.782,0,0,0,3.438-5.88c1.086,2.307,2.261,4.387,2.261,7.191A3.649,3.649,0,0,1,2585.992,1007.7Z" transform="translate(-2441.071 -980.648)" fill="#fff"/>
      </g>
      <g id="Group_4" data-name="Group 4" transform="translate(0 0)">
        <path id="Path_23" data-name="Path 23" d="M2161.081,984.566c0,.726-.559,1.229-1.454,1.229-1.174,0-2.906-.168-5.532-.168s-5.086.168-6.65.168c-1.286,0-2.012-.448-2.012-1.4,0-2.012,3.745-1.341,3.745-3.577a6.708,6.708,0,0,0-.447-1.956l-2.292-5.644c-.335-.95-.67-1.286-1.732-1.286h-12.573c-1.062,0-1.4.335-1.732,1.286l-2.236,5.588a6.265,6.265,0,0,0-.559,1.956c0,2.235,3.856,1.676,3.856,3.632,0,.95-.726,1.4-2.012,1.4-1.565,0-3.129-.168-4.862-.168s-2.906.168-4.135.168c-.95,0-1.509-.5-1.509-1.229,0-2.236,3.018-1.23,4.471-4.918l8.941-22.745c1.063-2.683,2.18-5.644,2.906-7.824,1.063-3.129,1.509-3.521,4.863-3.521,3.3,0,3.632.447,4.694,3.521.782,2.18,1.9,5.141,2.962,7.824l8.885,22.633C2158.174,983.281,2161.081,982.442,2161.081,984.566Zm-16.933-17.324-5.756-14.586-5.7,14.53c-.223.614-.056,1.062.671,1.062h10C2144.259,968.248,2144.371,967.745,2144.148,967.242Z" transform="translate(-2118.944 -944.721)" fill="#fff"/>
        <path id="Path_24" data-name="Path 24" d="M2244.715,982.459c0-2.459,4.416-1.006,4.416-4.806V950.1c0-1.677-.559-2.459-2.236-2.459h-1.621c-3.688,0-6.315,2.235-10,6.482-.783.894-1.285,1.4-2.068,1.4a1.391,1.391,0,0,1-1.341-1.565,10.932,10.932,0,0,1,1.229-3.856l1.9-4.526c.838-2.068,1.509-2.794,2.626-2.794,1.341,0,1.565,1.229,3.465,1.229h23.471c1.956,0,2.179-1.229,3.52-1.229,1.118,0,1.733.727,2.627,2.794l1.9,4.526c.782,1.955,1.23,2.962,1.23,3.856a1.43,1.43,0,0,1-1.4,1.565c-.727,0-1.23-.5-2.012-1.4-3.688-4.247-6.37-6.482-10.059-6.482H2258.8c-1.676,0-2.235.782-2.235,2.459v27.55c0,3.8,4.414,2.347,4.414,4.806,0,.726-.447,1.4-1.677,1.4-1.62,0-3.632-.168-6.483-.168-2.794,0-4.862.168-6.482.168C2245.163,983.856,2244.715,983.186,2244.715,982.459Z" transform="translate(-2197.787 -942.782)" fill="#fff"/>
        <path id="Path_25" data-name="Path 25" d="M2373.751,984.972c0-2.291,3.576-1.006,3.576-4.862V952.5c0-3.856-3.576-2.571-3.576-4.862,0-.67.559-1.341,1.789-1.341,1.341,0,2.794.167,5.42.167s4.3-.167,5.645-.167c1.229,0,1.676.671,1.676,1.341,0,2.291-3.576,1.006-3.576,4.862V980.11c0,3.856,3.576,2.571,3.576,4.862,0,.671-.446,1.341-1.676,1.341-1.342,0-3.018-.168-5.645-.168s-4.191.168-5.532.168C2374.2,986.313,2373.751,985.643,2373.751,984.972Z" transform="translate(-2296.856 -945.239)" fill="#fff"/>
      </g>
    </g>
  </g>
</svg>
