<svg xmlns="http://www.w3.org/2000/svg" id="Group_272" width="24" height="24" data-name="Group 272" viewBox="0 0 24 24"><g id="insta-logo"><path id="Path_497" fill="#dbbd8d" d="M13,3.168c3.213,0,3.6,0,4.839.077a5.768,5.768,0,0,1,2.245.426,4.082,4.082,0,0,1,1.394.89,3.319,3.319,0,0,1,.89,1.394A7.473,7.473,0,0,1,22.794,8.2c.039,1.277.077,1.626.077,4.839s0,3.6-.077,4.839a5.768,5.768,0,0,1-.426,2.245,4.082,4.082,0,0,1-.89,1.394,3.319,3.319,0,0,1-1.394.89,7.473,7.473,0,0,1-2.245.426c-1.277.039-1.626.077-4.839.077s-3.6,0-4.839-.077a5.768,5.768,0,0,1-2.245-.426,4.082,4.082,0,0,1-1.394-.89,3.318,3.318,0,0,1-.89-1.394,7.473,7.473,0,0,1-.426-2.245C3.168,16.6,3.168,16.213,3.168,13s0-3.6.077-4.839a5.768,5.768,0,0,1,.426-2.245,4.082,4.082,0,0,1,.89-1.394,3.319,3.319,0,0,1,1.394-.89A7.473,7.473,0,0,1,8.2,3.206c1.2-.039,1.587-.039,4.8-.039M13,1c-3.252,0-3.677,0-4.955.077a9.932,9.932,0,0,0-2.9.542A6.225,6.225,0,0,0,1.619,5.142a8.071,8.071,0,0,0-.542,2.9C1,9.323,1,9.748,1,13s0,3.677.077,4.955a9.932,9.932,0,0,0,.542,2.9,6.225,6.225,0,0,0,3.523,3.523,8.071,8.071,0,0,0,2.9.542C9.323,25,9.748,25,13,25s3.677,0,4.955-.077a9.932,9.932,0,0,0,2.9-.542,6.225,6.225,0,0,0,3.523-3.523,8.071,8.071,0,0,0,.542-2.9C25,16.677,25,16.252,25,13s0-3.677-.077-4.955a9.932,9.932,0,0,0-.542-2.9,6.225,6.225,0,0,0-3.523-3.523,8.071,8.071,0,0,0-2.9-.542C16.677,1,16.252,1,13,1Z" data-name="Path 497" transform="translate(-1 -1)"/><path id="Path_498" fill="#dbbd8d" d="M22.187,16.1a6.087,6.087,0,1,0,6.087,6.087A6.078,6.078,0,0,0,22.187,16.1Zm0,10.03a3.943,3.943,0,1,1,3.943-3.943A3.937,3.937,0,0,1,22.187,26.13Z" data-name="Path 498" transform="translate(-10.187 -10.187)"/><circle id="Ellipse_20" cx="1.449" cy="1.449" r="1.449" fill="#dbbd8d" data-name="Ellipse 20" transform="translate(16.928 4.174)"/></g></svg>