<svg xmlns="http://www.w3.org/2000/svg" width="18.001" height="14" viewBox="0 0 18.001 14">
  <path id="money-bill-wave-solid" d="M1.521,33.475c2.492.68,4.986.046,7.48-.59,2.719-.693,5.438-1.386,8.157-.371A1.353,1.353,0,0,1,18,33.8v9.683a1.179,1.179,0,0,1-1.522,1.044c-2.491-.681-4.985-.047-7.478.588-2.747.694-5.466,1.388-8.157.372A1.35,1.35,0,0,1,0,44.2V34.517a1.178,1.178,0,0,1,1.521-1.043ZM8.972,42A2.8,2.8,0,0,0,11.5,38.974a2.786,2.786,0,0,0-2.528-3,2.8,2.8,0,0,0-2.5,3A2.814,2.814,0,0,0,8.972,42Zm-7,2h2a1.983,1.983,0,0,0-2-2Zm0-8.528v2a1.966,1.966,0,0,0,2-2Zm14.029,5A2.026,2.026,0,0,0,14,42.5h2Zm-2-6.5a1.984,1.984,0,0,0,2,2v-2Z" transform="translate(0 -32.002)" fill="#dbbd8d"/>
</svg>
