<svg xmlns="http://www.w3.org/2000/svg" width="32" height="32" viewBox="0 0 32 32"><g id="Group_283" data-name="Group 283" transform="translate(1292 3898) rotate(180)"><circle id="Ellipse_6" cx="16" cy="16" r="16" fill="#231f20" data-name="Ellipse 6" transform="translate(1260 3866)"/><g id="Group_258" data-name="Group 258" transform="translate(-141.118 3293.341)"><path id="Path_495" fill="#dbbd8d" d="M1416.71,591.773c0-.358.229-.783.229-1.109,0-.521-.294-.75-1.338-.75h-7.632c-.685,0-1.044-.359-1.044-1.24,0-.913.358-1.272,1.044-1.272h7.632c1.044,0,1.338-.228,1.338-.75,0-.326-.229-.717-.229-1.109a.755.755,0,0,1,.815-.75c.587,0,1.338.457,4.762,1.663,3.522,1.3,5.023,1.435,5.023,2.218s-1.631.913-5.023,2.185c-3.424,1.207-4.175,1.663-4.762,1.663A.756.756,0,0,1,1416.71,591.773Z" data-name="Path 495"/></g></g></svg>